<svg width="123" height="122" viewBox="0 0 123 122" fill="none" xmlns="http://www.w3.org/2000/svg">
<path d="M83.7789 42.0566H78.1912C76.9759 42.0566 75.8203 42.6404 75.1054 43.6412L56.3765 69.6139L47.8937 57.8428C47.1789 56.8539 46.0351 56.2582 44.808 56.2582H39.2203C38.4458 56.2582 37.9931 57.1398 38.4458 57.7713L53.2908 78.3588C53.6415 78.8483 54.1038 79.2471 54.6394 79.5222C55.175 79.7974 55.7684 79.9409 56.3706 79.9409C56.9727 79.9409 57.5662 79.7974 58.1017 79.5222C58.6373 79.2471 59.0996 78.8483 59.4503 78.3588L84.5414 43.5697C85.006 42.9383 84.5533 42.0566 83.7789 42.0566Z" fill="#F15A24"/>
<path d="M61.9224 7.92212C32.3777 7.92212 8.42188 31.878 8.42188 61.4227C8.42188 90.9674 32.3777 114.923 61.9224 114.923C91.4672 114.923 115.423 90.9674 115.423 61.4227C115.423 31.878 91.4672 7.92212 61.9224 7.92212ZM61.9224 105.847C37.3934 105.847 17.4979 85.9518 17.4979 61.4227C17.4979 36.8936 37.3934 16.9981 61.9224 16.9981C86.4515 16.9981 106.347 36.8936 106.347 61.4227C106.347 85.9518 86.4515 105.847 61.9224 105.847Z" fill="#F15A24"/>
</svg>
