<svg width="187" height="88" viewBox="0 0 187 88" fill="none" xmlns="http://www.w3.org/2000/svg">
<g clip-path="url(#clip0_397_10744)">
<path d="M79.5417 26.3457H80.8778V33.2361C80.8778 35.9705 79.5263 36.8112 77.7449 36.8112C77.2533 36.8112 76.654 36.7046 76.3164 36.5669L76.5165 35.4818C76.7926 35.5884 77.1917 35.6806 77.6382 35.6806C78.8357 35.6806 79.5428 35.1453 79.5428 33.1295V26.3457H79.5417Z" fill="black"/>
<path d="M89.7859 32.885C89.7859 35.6194 87.8813 36.8111 86.0844 36.8111C84.072 36.8111 82.5215 35.3439 82.5215 33.0072C82.5215 30.5315 84.1501 29.0811 86.2076 29.0811C88.342 29.0799 89.7859 30.6237 89.7859 32.885ZM83.8884 32.9616C83.8884 34.5809 84.8253 35.8037 86.146 35.8037C87.4359 35.8037 88.4036 34.5965 88.4036 32.9316C88.4036 31.6788 87.7735 30.0895 86.1768 30.0895C84.5801 30.0895 83.8884 31.5556 83.8884 32.9616Z" fill="black"/>
<path d="M91.4287 36.6435C91.4595 36.1393 91.4903 35.3907 91.4903 34.7332V25.7959H92.8264V30.4406H92.8572C93.3333 29.6154 94.1933 29.0812 95.3908 29.0812C97.2339 29.0812 98.5392 30.6094 98.5238 32.8551C98.5238 35.4984 96.8501 36.8123 95.1907 36.8123C94.1152 36.8123 93.2553 36.4003 92.7021 35.4218H92.6559L92.5944 36.6435H91.4287ZM92.8264 33.6792C92.8264 33.8469 92.8572 34.0157 92.888 34.1679C93.1486 35.0997 93.9327 35.7417 94.9158 35.7417C96.3288 35.7417 97.1734 34.5955 97.1734 32.8995C97.1734 31.4179 96.4058 30.1496 94.9619 30.1496C94.0404 30.1496 93.1805 30.776 92.9034 31.8C92.8726 31.9533 92.8264 32.1365 92.8264 32.3498V33.6792Z" fill="black"/>
<path d="M104.345 36.6437L104.238 35.7118H104.192C103.777 36.2927 102.979 36.8114 101.919 36.8114C100.413 36.8114 99.6455 35.7574 99.6455 34.6878C99.6455 32.9008 101.242 31.9223 104.115 31.9379V31.7846C104.115 31.1738 103.945 30.0731 102.425 30.0731C101.735 30.0731 101.012 30.2875 100.49 30.6229L100.183 29.7366C100.798 29.339 101.689 29.0791 102.626 29.0791C104.899 29.0791 105.452 30.6218 105.452 32.1045V34.87C105.452 35.5119 105.483 36.1383 105.575 36.6425H104.345V36.6437ZM104.145 32.8697C102.671 32.8386 100.997 33.0985 100.997 34.5357C100.997 35.4064 101.581 35.8196 102.272 35.8196C103.239 35.8196 103.854 35.2087 104.068 34.5823C104.115 34.4446 104.145 34.2924 104.145 34.1547V32.8697Z" fill="black"/>
<path d="M110.889 31.2503C110.889 30.4861 110.873 29.8597 110.827 29.2489H112.025L112.102 30.4706H112.132C112.501 29.7676 113.361 29.0801 114.59 29.0801C115.619 29.0801 117.216 29.6909 117.216 32.2276V36.6435H115.865V32.3809C115.865 31.1892 115.419 30.1963 114.145 30.1963C113.254 30.1963 112.562 30.8227 112.333 31.5712C112.271 31.7389 112.24 31.9688 112.24 32.1976V36.6435H110.889V31.2503Z" fill="#F15A24"/>
<path d="M123.528 36.6437L123.42 35.7118H123.374C122.96 36.2927 122.161 36.8114 121.101 36.8114C119.596 36.8114 118.828 35.7574 118.828 34.6878C118.828 32.9008 120.425 31.9223 123.297 31.9379V31.7846C123.297 31.1738 123.128 30.0731 121.608 30.0731C120.917 30.0731 120.195 30.2875 119.673 30.6229L119.366 29.7366C119.981 29.339 120.871 29.0791 121.808 29.0791C124.081 29.0791 124.634 30.6218 124.634 32.1045V34.87C124.634 35.5119 124.665 36.1383 124.758 36.6425H123.528V36.6437ZM123.329 32.8697C121.854 32.8386 120.181 33.0985 120.181 34.5357C120.181 35.4064 120.765 35.8196 121.455 35.8196C122.423 35.8196 123.038 35.2087 123.252 34.5823C123.298 34.4446 123.329 34.2924 123.329 34.1547V32.8697Z" fill="black"/>
<path d="M128.382 27.124V29.2476H130.318V30.2716H128.382V34.2599C128.382 35.1762 128.643 35.6959 129.396 35.6959C129.749 35.6959 130.011 35.6504 130.179 35.6037L130.241 36.6122C129.98 36.7188 129.566 36.7955 129.043 36.7955C128.413 36.7955 127.906 36.5967 127.584 36.2301C127.2 35.8325 127.062 35.1762 127.062 34.3054V30.2716H125.909V29.2476H127.062V27.4761L128.382 27.124Z" fill="black"/>
<path d="M138.058 34.6267C138.058 35.3909 138.073 36.0628 138.119 36.6437H136.922L136.845 35.4364H136.814C136.461 36.0317 135.677 36.8114 134.356 36.8114C133.19 36.8114 131.792 36.1694 131.792 33.5727V29.249H133.143V33.3439C133.143 34.75 133.573 35.6974 134.802 35.6974C135.708 35.6974 136.338 35.071 136.583 34.4757C136.66 34.2769 136.706 34.0325 136.706 33.7882V29.249H138.058V34.6267Z" fill="black"/>
<path d="M140.301 31.5556C140.301 30.6848 140.285 29.9362 140.239 29.2488H141.421L141.468 30.7004H141.529C141.867 29.7075 142.682 29.0811 143.588 29.0811C143.742 29.0811 143.848 29.0966 143.972 29.1266V30.3949C143.833 30.3638 143.696 30.3494 143.511 30.3494C142.558 30.3494 141.882 31.068 141.699 32.0764C141.668 32.2597 141.637 32.4741 141.637 32.7028V36.6445H140.301V31.5556Z" fill="black"/>
<path d="M149.362 36.6437L149.254 35.7118H149.208C148.794 36.2927 147.995 36.8114 146.935 36.8114C145.43 36.8114 144.662 35.7574 144.662 34.6878C144.662 32.9008 146.259 31.9223 149.131 31.9379V31.7846C149.131 31.1738 148.962 30.0731 147.442 30.0731C146.751 30.0731 146.029 30.2875 145.507 30.6229L145.2 29.7366C145.815 29.339 146.705 29.0791 147.642 29.0791C149.915 29.0791 150.468 30.6218 150.468 32.1045V34.87C150.468 35.5119 150.499 36.1383 150.592 36.6425H149.362V36.6437ZM149.162 32.8697C147.687 32.8386 146.014 33.0985 146.014 34.5357C146.014 35.4064 146.598 35.8196 147.288 35.8196C148.256 35.8196 148.871 35.2087 149.085 34.5823C149.131 34.4446 149.162 34.2924 149.162 34.1547V32.8697Z" fill="black"/>
<path d="M154 25.7959H152.648V36.6435H154V25.7959Z" fill="black"/>
<path d="M76.2549 57.0106C76.5485 56.9561 77.0126 56.915 77.4843 56.915C78.1573 56.915 78.5895 57.0172 78.915 57.2482C79.1855 57.4248 79.3482 57.6969 79.3482 58.0579C79.3482 58.4999 79.0161 58.8875 78.4663 59.0641V59.0775C78.9612 59.1863 79.5407 59.5461 79.5407 60.227C79.5407 60.6212 79.3625 60.92 79.0997 61.1444C78.7368 61.4364 78.1485 61.5731 77.2985 61.5731C76.8344 61.5731 76.4792 61.5453 76.2549 61.5186V57.0106ZM76.9279 58.8875H77.5382C78.2497 58.8875 78.6665 58.561 78.6665 58.119C78.6665 57.5814 78.2024 57.3715 77.5217 57.3715C77.2127 57.3715 77.0345 57.3915 76.9268 57.4126V58.8875H76.9279ZM76.9279 61.0833C77.0598 61.1033 77.2523 61.1099 77.492 61.1099C78.1881 61.1099 78.8292 60.8856 78.8292 60.2192C78.8292 59.5939 78.2189 59.3351 77.4843 59.3351H76.9279V61.0833Z" fill="black"/>
<path d="M80.8325 59.9961C80.8479 60.8057 81.4351 61.1389 82.1158 61.1389C82.603 61.1389 82.8966 61.0645 83.1517 60.969L83.2672 61.3977C83.0275 61.4932 82.6173 61.6021 82.0224 61.6021C80.8699 61.6021 80.1826 60.9357 80.1826 59.9428C80.1826 58.9499 80.8479 58.168 81.9377 58.168C83.1594 58.168 83.4838 59.1131 83.4838 59.7184C83.4838 59.8406 83.4684 59.9361 83.4607 59.9972H80.8325V59.9961ZM82.8273 59.5674C82.835 59.1864 82.6492 58.5945 81.8838 58.5945C81.1954 58.5945 80.8941 59.152 80.8402 59.5674H82.8273Z" fill="black"/>
<path d="M86.3987 61.5324L86.3448 61.117H86.3217C86.1128 61.3758 85.7114 61.6068 85.177 61.6068C84.4193 61.6068 84.0322 61.1381 84.0322 60.6616C84.0322 59.8664 84.8361 59.431 86.2821 59.4377V59.3699C86.2821 59.0978 86.1975 58.608 85.4321 58.608C85.0846 58.608 84.7206 58.7036 84.4578 58.8524L84.3027 58.4581C84.6117 58.2815 85.0604 58.166 85.5322 58.166C86.6769 58.166 86.9551 58.8524 86.9551 59.5121V60.7427C86.9551 61.0281 86.9705 61.3069 87.0167 61.5312H86.3987V61.5324ZM86.2975 59.852C85.5553 59.8386 84.7129 59.9541 84.7129 60.5928C84.7129 60.9804 85.0065 61.1636 85.3551 61.1636C85.8423 61.1636 86.1513 60.8915 86.2601 60.6128C86.2832 60.5517 86.2986 60.4839 86.2986 60.4228V59.852H86.2975Z" fill="black"/>
<path d="M91.1851 60.6338C91.1851 60.9736 91.1928 61.2735 91.2159 61.5312H90.6133L90.5748 60.9936H90.5594C90.3812 61.2591 89.9876 61.6056 89.3223 61.6056C88.735 61.6056 88.0312 61.3202 88.0312 60.164V58.2393H88.7119V60.0618C88.7119 60.6871 88.9286 61.1091 89.5466 61.1091C90.003 61.1091 90.3197 60.8304 90.4439 60.5649C90.4824 60.4761 90.5055 60.3672 90.5055 60.2584V58.2393H91.1862V60.6338H91.1851Z" fill="black"/>
<path d="M93.1334 57.2959V58.2411H94.1077V58.6964H93.1334V60.4712C93.1334 60.8788 93.2653 61.1098 93.6436 61.1098C93.8218 61.1098 93.9526 61.0898 94.0384 61.0687L94.0692 61.5174C93.9372 61.5652 93.7294 61.5985 93.4666 61.5985C93.1499 61.5985 92.8947 61.5097 92.732 61.3475C92.5385 61.1709 92.4692 60.8788 92.4692 60.4912V58.6964H91.8896V58.2411H92.4692V57.4525L93.1334 57.2959Z" fill="black"/>
<path d="M95.1895 58.2404L96.0088 60.1851C96.0935 60.4028 96.1869 60.6616 96.2485 60.8581H96.2639C96.3332 60.6605 96.4113 60.4094 96.5036 60.1718L97.2459 58.2404H97.9651L96.9446 60.586C96.4575 61.7144 96.1254 62.2931 95.6613 62.6463C95.3292 62.9051 94.996 63.0072 94.8267 63.0339L94.6562 62.5308C94.8267 62.483 95.051 62.3875 95.2511 62.2387C95.437 62.1098 95.669 61.8777 95.8229 61.5723C95.8537 61.5112 95.8768 61.4634 95.8768 61.429C95.8768 61.3946 95.8614 61.3479 95.8306 61.2724L94.4473 58.2393H95.1895V58.2404Z" fill="black"/>
<path d="M100.154 60.8122C100.455 60.9755 100.896 61.111 101.36 61.111C102.048 61.111 102.45 60.7911 102.45 60.3291C102.45 59.9004 102.172 59.656 101.468 59.4184C100.618 59.1529 100.092 58.7653 100.092 58.1189C100.092 57.4048 100.765 56.875 101.778 56.875C102.311 56.875 102.698 56.9838 102.93 57.0993L102.745 57.5825C102.574 57.5014 102.227 57.3648 101.755 57.3648C101.043 57.3648 100.773 57.7391 100.773 58.0512C100.773 58.4799 101.09 58.6909 101.809 58.9352C102.69 59.234 103.138 59.6083 103.138 60.2813C103.138 60.9888 102.543 61.6008 101.314 61.6008C100.811 61.6008 100.263 61.4719 99.9844 61.3087L100.154 60.8122Z" fill="black"/>
<path d="M104.46 59.9961C104.476 60.8057 105.063 61.1389 105.744 61.1389C106.231 61.1389 106.525 61.0645 106.78 60.969L106.895 61.3977C106.655 61.4932 106.245 61.6021 105.65 61.6021C104.498 61.6021 103.811 60.9357 103.811 59.9428C103.811 58.9499 104.476 58.168 105.566 58.168C106.787 58.168 107.112 59.1131 107.112 59.7184C107.112 59.8406 107.096 59.9361 107.089 59.9972H104.46V59.9961ZM106.455 59.5674C106.463 59.1864 106.277 58.5945 105.512 58.5945C104.823 58.5945 104.522 59.152 104.468 59.5674H106.455Z" fill="black"/>
<path d="M107.955 59.2678C107.955 58.8802 107.947 58.547 107.924 58.2404H108.519L108.542 58.8868H108.573C108.743 58.4448 109.152 58.166 109.609 58.166C109.685 58.166 109.74 58.1727 109.802 58.186V58.7502C109.733 58.7369 109.662 58.7302 109.57 58.7302C109.091 58.7302 108.751 59.0501 108.657 59.4988C108.642 59.5799 108.627 59.6754 108.627 59.7775V61.5324H107.954V59.2678H107.955Z" fill="black"/>
<path d="M110.939 58.2412L111.673 60.0904C111.797 60.3892 111.898 60.6613 111.975 60.9334H111.998C112.083 60.6613 112.191 60.3892 112.315 60.0904L113.041 58.2412H113.753L112.284 61.532H111.634L110.211 58.2412H110.939Z" fill="black"/>
<path d="M115.152 57.3157C115.16 57.5201 114.989 57.6833 114.719 57.6833C114.479 57.6833 114.309 57.5201 114.309 57.3157C114.309 57.1047 114.487 56.9414 114.734 56.9414C114.99 56.9425 115.152 57.1058 115.152 57.3157ZM114.394 58.2409H115.075V61.5317H114.394V58.2409Z" fill="black"/>
<path d="M118.871 61.4092C118.693 61.4903 118.299 61.5992 117.796 61.5992C116.667 61.5992 115.934 60.9261 115.934 59.9199C115.934 58.907 116.722 58.1729 117.944 58.1729C118.346 58.1729 118.701 58.2617 118.887 58.3428L118.732 58.8048C118.569 58.7237 118.314 58.6482 117.944 58.6482C117.086 58.6482 116.622 59.2057 116.622 59.8921C116.622 60.654 117.178 61.1227 117.921 61.1227C118.307 61.1227 118.562 61.0339 118.755 60.9594L118.871 61.4092Z" fill="black"/>
<path d="M120 59.9961C120.016 60.8057 120.603 61.1389 121.284 61.1389C121.771 61.1389 122.065 61.0645 122.32 60.969L122.435 61.3977C122.195 61.4932 121.785 61.6021 121.19 61.6021C120.038 61.6021 119.351 60.9357 119.351 59.9428C119.351 58.9499 120.016 58.168 121.106 58.168C122.327 58.168 122.652 59.1131 122.652 59.7184C122.652 59.8406 122.636 59.9361 122.629 59.9972H120V59.9961ZM121.995 59.5674C122.003 59.1864 121.817 58.5945 121.052 58.5945C120.363 58.5945 120.062 59.152 120.008 59.5674H121.995Z" fill="black"/>
<path d="M123.402 60.9194C123.603 61.0349 123.958 61.1571 124.299 61.1571C124.794 61.1571 125.026 60.9394 125.026 60.6673C125.026 60.3819 124.833 60.2253 124.33 60.062C123.657 59.851 123.34 59.5245 123.34 59.1302C123.34 58.5993 123.827 58.165 124.631 58.165C125.011 58.165 125.343 58.2606 125.552 58.3694L125.381 58.8048C125.234 58.7237 124.963 58.6148 124.616 58.6148C124.213 58.6148 123.989 58.8192 123.989 59.0635C123.989 59.3357 124.213 59.4578 124.701 59.6211C125.351 59.8388 125.683 60.1242 125.683 60.614C125.683 61.1915 125.172 61.6002 124.283 61.6002C123.873 61.6002 123.494 61.5114 123.231 61.3759L123.402 60.9194Z" fill="black"/>
<path d="M71.0742 29.3376C70.2472 26.9186 69.0717 25.0405 67.5486 23.7033C65.4845 21.9018 62.8355 21 59.6013 21C59.0999 21 58.5687 21.0144 58.0112 21.0422H46.5494C42.8688 21.0711 39.815 22.4783 37.3881 25.2671C35.1294 27.8593 34 32.3085 34 38.6181V54.8411C38.7594 54.8411 42.617 50.945 42.617 46.1382V35.9559C42.7281 31.7876 44.7778 29.6752 48.7663 29.6186H56.9654C61.4554 29.5341 63.5744 32.3652 63.3237 38.1105V67.5158C68.1754 67.5158 72.1089 63.543 72.1089 58.644V35.7104C72.1089 33.5435 71.7746 31.3856 71.0742 29.3376Z" fill="#F15A24"/>
<path d="M39.5269 56.3516C36.4742 56.3516 34 58.8505 34 61.9336C34 65.0168 36.4742 67.5157 39.5269 67.5157C42.5796 67.5157 45.0538 65.0168 45.0538 61.9336C45.0549 58.8505 42.5796 56.3516 39.5269 56.3516Z" fill="#F15A24"/>
<path d="M76.2969 40.3555H79.9313V45.9564H86.824V40.3555H90.4584V55.2547H86.824V48.8363H79.9313V55.2547H76.2969V40.3555Z" fill="black"/>
<path d="M97.8453 40.3555V48.7785C97.8453 51.9472 99.5168 52.748 101.357 52.748C103.316 52.748 104.626 51.9094 104.626 48.7785V40.3555H108.26V48.8963C108.26 53.4166 105.706 55.5712 101.255 55.5712C96.9491 55.5712 94.2109 53.6009 94.2109 48.9774V40.3555H97.8453Z" fill="black"/>
<path d="M112 40.3555H120.289C123.873 40.3555 125.432 42.0903 125.432 44.1927C125.432 45.9175 124.349 46.9438 123.197 47.3714C124.646 47.819 125.98 48.9307 125.98 50.8199C125.98 53.6154 123.825 55.2547 120.155 55.2547H112.001V40.3555H112ZM119.529 46.1874C121.156 46.1874 121.675 45.5455 121.675 44.6448C121.675 43.5219 120.816 43.0643 119.561 43.0643H115.578V46.1874H119.529ZM115.578 52.5636H119.683C121.083 52.5636 122.147 52.1549 122.147 50.6811C122.147 49.4916 121.334 48.8785 119.753 48.8785H115.578V52.5636Z" fill="black"/>
</g>
<defs>
<clipPath id="clip0_397_10744">
<rect width="120" height="46.5169" fill="white" transform="translate(34 21)"/>
</clipPath>
</defs>
</svg>
